# xmcd CD database file
# Generated: mar avr 9 22:19:33 2002 by KSCD
# 
# Track frame offsets:
#       150
#       17662
#       49718
#       67343
#       80750
#       100189
#       114936
#       139643
#       152648
#       173687
#       192622
#       209767
#       229452
#       263911
#
# Disc length: 3733 seconds
#
# Revision: 8
# Processed by: cddbd v1.4PL0 Copyright (c) Steve Scherf et al.
# Submitted via: Kscd 1.3.3
#
DISCID=cb0e930e
DTITLE=LegendBob Marley and The Wailers - The Best of Bob Marley and the Wailer
DTITLE=s
DYEAR=1900
DGENRE=
TTITLE0=Is This Love
TTITLE1=No Women No Cry
TTITLE2=Could You Be Loved
TTITLE3=Three Little Birds
TTITLE4=Buffalo Soldier
TTITLE5=Get Up Stand Up
TTITLE6=Stir It Up
TTITLE7=One Love - People Get Ready
TTITLE8=I Shot The Sheriff
TTITLE9=Waiting In Vain
TTITLE10=Redemption Song
TTITLE11=Satisfy My Soul
TTITLE12=Exodus
TTITLE13=Jamming
EXTD=
EXTT0=
EXTT1=
EXTT2=
EXTT3=
EXTT4=
EXTT5=
EXTT6=
EXTT7=
EXTT8=
EXTT9=
EXTT10=
EXTT11=
EXTT12=
EXTT13=
PLAYORDER=
